<svg width="1488" height="1305" viewBox="0 0 1488 1305" fill="none" xmlns="http://www.w3.org/2000/svg">
<g id="Enabble Location" style="mix-blend-mode:luminosity">
<path id="Stroke 1" fill-rule="evenodd" clip-rule="evenodd" d="M1347.63 714.055C1347.63 1038.54 1084.57 1301.6 760.085 1301.6C435.597 1301.6 172.547 1038.54 172.547 714.055C172.547 389.568 435.597 126.512 760.085 126.512C1084.57 126.512 1347.63 389.568 1347.63 714.055Z" stroke="#E9EAEC" stroke-dasharray="5.02 5.02"/>
<path id="Stroke 3" fill-rule="evenodd" clip-rule="evenodd" d="M1196.41 714.055C1196.41 955.022 1001.06 1150.37 760.097 1150.37C519.124 1150.37 323.789 955.022 323.789 714.055C323.789 473.088 519.124 277.742 760.097 277.742C1001.06 277.742 1196.41 473.088 1196.41 714.055Z" stroke="#E9EAEC" stroke-dasharray="5.05 5.05"/>
<path id="Stroke 5" d="M61.557 793.161L50.6484 792.827" stroke="#D2D8DF" stroke-linecap="round"/>
<path id="Stroke 7" d="M53.714 772.478L45.8906 779.786" stroke="#D2D8DF" stroke-linecap="round"/>
<path id="Stroke 9" d="M33.3282 763.033L33.1641 773.698" stroke="#D2D8DF" stroke-linecap="round"/>
<path id="Stroke 11" d="M12.3281 770.355L19.925 778.133" stroke="#D2D8DF" stroke-linecap="round"/>
<path id="Stroke 13" d="M3 790.16L13.9029 790.494" stroke="#D2D8DF" stroke-linecap="round"/>
<path id="Stroke 15" d="M10.8047 810.844L18.6337 803.535" stroke="#D2D8DF" stroke-linecap="round"/>
<path id="Stroke 17" d="M31.2188 820.291L31.3829 809.626" stroke="#D2D8DF" stroke-linecap="round"/>
<path id="Stroke 19" d="M52.1985 812.966L44.6016 805.188" stroke="#D2D8DF" stroke-linecap="round"/>
<path id="Stroke 21" d="M1484.12 641.108L1479.33 646.299" stroke="#D2D8DF" stroke-linecap="round"/>
<path id="Stroke 23" d="M1461.63 645.619L1465.25 648.954" stroke="#D2D8DF" stroke-linecap="round"/>
<path id="Stroke 25" d="M1457.98 668.627L1462.77 663.436" stroke="#D2D8DF" stroke-linecap="round"/>
<path id="Stroke 27" d="M1480.53 664.116L1476.91 660.782" stroke="#D2D8DF" stroke-linecap="round"/>
<path id="Stroke 29" d="M1045.03 31.0032L1033.43 30.6919" stroke="#D2D8DF" stroke-linecap="round"/>
<path id="Stroke 31" d="M1014.97 3L1014.8 12.9122" stroke="#D2D8DF" stroke-linecap="round"/>
<path id="Stroke 33" d="M982.734 28.2142L994.334 28.5199" stroke="#D2D8DF" stroke-linecap="round"/>
<path id="Stroke 35" d="M1012.71 56.2175L1012.89 46.3053" stroke="#D2D8DF" stroke-linecap="round"/>
<path id="Fill 37" fill-rule="evenodd" clip-rule="evenodd" d="M186.034 1101.25C177.69 1103.75 163.793 1116.01 159.038 1130.54C158.24 1117.04 149.663 1100.06 140.227 1097.61C151.741 1093.54 164.212 1078.58 167.529 1065.98C166.929 1079.19 178.924 1098.37 186.034 1101.25Z" fill="#EBECEF"/>
<path id="Fill 39" fill-rule="evenodd" clip-rule="evenodd" d="M381.502 84.0962C375.066 85.234 363.659 93.1593 358.859 103.575C359.43 93.448 354.511 80.06 347.695 77.422C356.623 75.3841 367.208 65.319 370.769 56.2163C369.178 66.0096 376.453 81.3393 381.502 84.0962Z" fill="#EBECEF"/>
<path id="Fill 41" fill-rule="evenodd" clip-rule="evenodd" d="M1234.56 157.638C1225.96 157.451 1219.15 150.335 1219.34 141.742C1219.53 133.149 1226.64 126.333 1235.23 126.52C1243.83 126.707 1250.64 133.823 1250.46 142.416C1250.27 151.009 1243.16 157.825 1234.56 157.638Z" fill="#D1D9E0"/>
<path id="Fill 43" fill-rule="evenodd" clip-rule="evenodd" d="M1234.63 1177.46C1227.15 1177.3 1221.22 1171.1 1221.38 1163.63C1221.54 1156.14 1227.74 1150.21 1235.22 1150.37C1242.7 1150.53 1248.64 1156.72 1248.47 1164.21C1248.31 1171.69 1242.11 1177.62 1234.63 1177.46Z" fill="#EBECEF"/>
<path id="Stroke 45" fill-rule="evenodd" clip-rule="evenodd" d="M109.572 364.183C104.941 364.082 101.267 360.249 101.369 355.613C101.465 350.982 105.304 347.314 109.934 347.41C114.565 347.512 118.239 351.345 118.142 355.975C118.041 360.611 114.202 364.285 109.572 364.183Z" stroke="#D2D8DF" stroke-linecap="round"/>
<path id="Fill 47" fill-rule="evenodd" clip-rule="evenodd" d="M1012.92 331.713C1012.92 361.518 988.756 385.678 958.957 385.678C929.147 385.678 904.992 361.518 904.992 331.713C904.992 301.909 929.147 277.742 958.957 277.742C988.756 277.742 1012.92 301.909 1012.92 331.713Z" fill="white"/>
<path id="Fill 49" fill-rule="evenodd" clip-rule="evenodd" d="M415.673 1044.91L335.277 548.646C334.082 541.298 337.462 533.962 343.813 530.089L556.159 400.472C560.337 397.925 565.352 397.149 570.096 398.321L832.031 463.104C836.939 464.316 842.13 463.444 846.376 460.698L1021.6 347.316C1031.91 340.648 1045.73 345.805 1049.14 357.596L1196.57 866.635C1198.73 874.09 1195.95 882.095 1189.65 886.618L1028.33 1002.23C1023.95 1005.36 1018.43 1006.41 1013.22 1005.11L706.371 928.401C702.08 927.331 697.54 927.846 693.605 929.856L442.081 1058.3C431.019 1063.94 417.665 1057.18 415.673 1044.91Z" fill="#F1F2F7"/>
<path id="Fill 51" fill-rule="evenodd" clip-rule="evenodd" d="M959.594 373.697C934.074 373.697 913.39 353.007 913.39 327.487C913.39 301.968 934.074 281.277 959.594 281.277C985.119 281.277 1005.8 301.968 1005.8 327.487C1005.8 353.007 985.119 373.697 959.594 373.697ZM959.621 229.933C907.241 228.45 863.573 269.712 862.089 322.092C862.05 323.581 862.044 325.076 862.072 326.565C862.072 407.481 952.432 482.341 956.236 485.42C958.155 487.068 960.985 487.068 962.91 485.42C966.912 481.831 1057.17 399.471 1057.17 326.565C1058.16 274.167 1016.49 230.896 964.093 229.916C962.604 229.888 961.115 229.894 959.621 229.933Z" fill="url(#paint0_linear_2620_82683)"/>
<path id="Stroke 53" d="M595.664 819.722L752.063 860.525C768.519 864.816 781.466 846.367 771.797 832.379C717.809 754.304 616.762 592.488 711.837 599.281C836.954 608.219 813.122 721.211 839.931 736.212C866.747 751.208 1027.61 717.707 1033.56 658.499C1039.52 599.281 1018.67 569.493 976.965 551.622C935.261 533.745 956.195 485.423 956.195 485.423" stroke="#0E1D25" stroke-width="2" stroke-dasharray="7"/>
<path id="Fill 55" fill-rule="evenodd" clip-rule="evenodd" d="M395.7 614.545L384.995 572.92C382.629 563.727 386.704 554.087 394.952 549.371L525.413 474.823C526.443 474.234 527.513 473.736 528.623 473.328L571.866 457.506C575.608 456.136 579.667 455.853 583.567 456.697L678.455 477.229C686.058 478.87 692.132 484.565 694.266 492.038C698.336 506.28 686.839 520.161 672.092 518.819L630.349 515.026C616.995 513.809 605.917 525.21 607.513 538.525L611.357 570.56C612.523 580.274 606.851 589.512 597.663 592.869L509.953 624.904C503.772 627.157 496.899 626.399 491.357 622.855L467.304 607.469C457.482 601.18 444.423 604.067 438.162 613.905L433.894 620.613C423.993 636.17 400.296 632.405 395.7 614.545Z" fill="#D8DBEA"/>
<path id="Fill 57" fill-rule="evenodd" clip-rule="evenodd" d="M972.274 802.927L1002.22 931.276C1005.66 946.029 1023.09 952.442 1035.27 943.436L1134.98 869.737C1141.95 864.591 1145.06 855.698 1142.81 847.325L1119.42 760.148C1116.33 748.622 1104.3 741.959 1092.9 745.452L986.63 777.985C976.027 781.229 969.755 792.132 972.274 802.927Z" fill="#D8DBEA"/>
<path id="Fill 59" fill-rule="evenodd" clip-rule="evenodd" d="M849.297 845.431L917.687 849.812C926.642 850.389 934.256 856.571 936.651 865.227L949.942 913.242C954.222 928.691 940.375 943.07 924.774 939.373L857.081 923.341C850.311 921.739 844.763 916.894 842.267 910.401L828.278 874.029C822.765 859.685 833.962 844.451 849.297 845.431Z" fill="#D8DBEA"/>
<path id="Fill 61" fill-rule="evenodd" clip-rule="evenodd" d="M532.738 814.179C505.107 814.179 482.707 791.779 482.707 764.154C482.707 736.523 505.107 714.123 532.738 714.123C560.369 714.123 582.763 736.523 582.763 764.154C582.763 791.779 560.369 814.179 532.738 814.179ZM532.758 658.539C476.041 656.931 428.773 701.601 427.165 758.312C427.12 759.926 427.114 761.539 427.142 763.152C427.142 850.754 524.974 931.801 529.089 935.136C531.167 936.919 534.235 936.919 536.313 935.136C540.654 931.247 638.367 842.088 638.367 763.152C639.437 706.43 594.32 659.581 537.592 658.516C535.979 658.488 534.365 658.494 532.758 658.539Z" fill="url(#paint1_linear_2620_82683)"/>
</g>
<defs>
<linearGradient id="paint0_linear_2620_82683" x1="862.055" y1="229.894" x2="862.055" y2="486.656" gradientUnits="userSpaceOnUse">
<stop stop-color="#FAD961"/>
<stop offset="1" stop-color="#F76B1C"/>
</linearGradient>
<linearGradient id="paint1_linear_2620_82683" x1="532.755" y1="519.509" x2="264.929" y2="723.056" gradientUnits="userSpaceOnUse">
<stop stop-color="#FF8960"/>
<stop offset="1" stop-color="#FF62A5"/>
</linearGradient>
</defs>
</svg>
